<?xml version="1.0" encoding="utf-8"?>
<svg xmlns="http://www.w3.org/2000/svg" viewBox="0 0 50 50" width="30" height="30">
  <path d="M24 46C22.769531 46 21.589844 45.257813 20.84375 44.015625L9.691406 28.6875C8.566406 27.113281 8 25.339844 8 23.398438L8 14C8 9.039063 12.039063 5 17 5L36 5C39.097656 5 41 7.503906 41 9.300781C41 10.132813 40.824219 10.835938 40.628906 11.359375C41.617188 11.976563 43 13.195313 43 15.199219C43 16.609375 42.335938 17.566406 41.675781 18.175781C42.324219 18.851563 43 19.894531 43 21.300781C43 23.324219 41.683594 24.445313 40.804688 24.96875C40.894531 25.585938 41 26.457031 41 27.101563C41 28.96875 39.277344 30.902344 36.398438 30.902344C33.832031 30.976563 27.015625 30.996094 23.941406 31C24.980469 33.324219 26.964844 37.804688 27.34375 38.863281C27.429688 39.121094 27.507813 39.320313 27.578125 39.503906C27.796875 40.046875 28 40.566406 28 41.398438C28 44.574219 25.660156 46 24 46Z" fill="#FFFFFF" />
</svg>