<?xml version="1.0" encoding="utf-8"?>
<svg xmlns="http://www.w3.org/2000/svg" viewBox="0 0 50 50" width="30" height="30">
  <path d="M36 45L17 45C12.039063 45 8 40.964844 8 36L8 26.601563C8 24.660156 8.566406 22.886719 9.6875 21.320313L20.890625 5.910156C21.589844 4.742188 22.769531 4 24 4C25.660156 4 28 5.425781 28 8.601563C28 9.507813 27.753906 10.117188 27.511719 10.707031C27.453125 10.847656 27.394531 10.992188 27.335938 11.148438C26.960938 12.199219 24.980469 16.675781 23.941406 19C27.019531 19.003906 33.839844 19.023438 36.429688 19.101563C39.28125 19.101563 41 21.03125 41 22.898438C41 23.539063 40.894531 24.414063 40.804688 25.03125C41.683594 25.554688 43 26.679688 43 28.699219C43 30.105469 42.324219 31.144531 41.675781 31.824219C42.335938 32.433594 43 33.390625 43 34.800781C43 36.808594 41.617188 38.023438 40.628906 38.640625C40.824219 39.164063 41 39.867188 41 40.699219C41 42.496094 39.097656 45 36 45Z" fill="#FFFFFF" />
</svg>